# AST/ASF file generated using VICON BodyLanguage
# -----------------------------------------------
:version 1.10
:name VICON
:units
  mass 1.0
  length 0.45
  angle deg
:documentation
   .ast/.asf automatically generated from VICON data using
   VICON BodyBuilder and BodyLanguage model FoxedUp or BRILLIANT.MOD
:root
   order TX TY TZ RX RY RZ
   axis XYZ
   position 0 0 0  
   orientation 0 0 0 
:bonedata
  begin
     id 1 
     name lhipjoint
     direction 0.521452 -0.77106 0.36545 
     length 2.0933 
     axis 0 0 0  XYZ
  end
  begin
     id 2 
     name lfemur
     direction 0.34202 -0.939693 0  
     length 6.83441  
     axis 0 0 20  XYZ
    dof rx ry rz
    limits (-160.0 20.0)
           (-70.0 70.0)
           (-60.0 70.0)
  end
  begin
     id 3 
     name ltibia
     direction 0.34202 -0.939693 0   
     length 7.28749   
     axis 0 0 20   XYZ
    dof rx
    limits (-10.0 170.0)
  end
  begin
     id 4 
     name lfoot
     direction 0.100608 -0.276418 0.955757   
     length 1.52195   
     axis -90 7.62852e-016 20   XYZ
    dof rx rz
    limits (-45.0 90.0)
           (-70.0 20.0)
  end
  begin
     id 5 
     name ltoes
     direction 1.53558e-011 -4.21907e-011 1   
     length 0.770459   
     axis -90 7.62852e-016 20   XYZ
    dof rx
    limits (-90.0 20.0)
  end
  begin
     id 6 
     name rhipjoint
     direction -0.488071 -0.788702 0.373812   
     length 2.04648  
     axis 0 0 0  XYZ 
  end
  begin
     id 7 
     name rfemur
     direction -0.34202 -0.939693 0   
     length 6.92583   
     axis 0 0 -20   XYZ
    dof rx ry rz
    limits (-160.0 20.0)
           (-70.0 70.0)
           (-70.0 60.0)
  end
  begin
     id 8 
     name rtibia
     direction -0.34202 -0.939693 0   
     length 7.41043   
     axis 0 0 -20   XYZ
    dof rx
    limits (-10.0 170.0)
 end
 begin
     id 9 
     name rfoot
     direction -0.0784433 -0.215521 0.973343   
     length 1.67708  
     axis -90 -7.62852e-016 -20   XYZ
    dof rx rz
    limits (-45.0 90.0)
           (-20.0 70.0)
  end
  begin
     id 10 
     name rtoes
     direction -1.53551e-011 -4.21842e-011 1   
     length 0.849787   
     axis -90 -7.62852e-016 -20   XYZ
    dof rx
    limits (-90.0 20.0)
  end
  begin
     id 11 
     name lowerback
     direction -0.0122332 0.997575 -0.0685192   
     length 1.98724   
     axis 0 0 0   XYZ
    dof rx ry rz
    limits (-20.0 45.0)
           (-30.0 30.0)
           (-30.0 30.0)
  end
  begin
     id 12 
     name upperback
     direction 0.0182347 0.999724 -0.0148421   
     length 1.99029   
     axis 0 0 0   XYZ
    dof rx ry rz
    limits (-20.0 45.0)
           (-30.0 30.0)
           (-30.0 30.0)
  end
  begin
     id 13 
     name thorax
     direction 0.0242908 0.99956 0.0170184   
     length 1.99573   
     axis 0 0 0   XYZ
    dof rx ry rz
    limits (-20.0 45.0)
           (-30.0 30.0)
           (-30.0 30.0)
  end
  begin
     id 14 
     name lowerneck
     direction 0.0654488 0.985533 0.156338   
     length 1.4285   
     axis 0 0 0   XYZ
    dof rx ry rz
    limits (-20.0 45.0)
           (-30.0 30.0)
           (-30.0 30.0)
  end
  begin
     id 15 
     name upperneck
     direction -0.02953 0.998556 -0.0448842   
     length 1.44709   
     axis 0 0 0   XYZ
    dof rx ry rz
    limits (-20.0 45.0)
           (-30.0 30.0)
           (-30.0 30.0)
  end
  begin
     id 16
     name head
     direction -0.0155588 0.999386 -0.0314063  
     length 1.44689  
     axis 0 0 0   XYZ
    dof rx ry rz
    limits (-20.0 45.0)
           (-30.0 30.0)
           (-30.0 30.0)
  end
  begin
     id 17 
     name lclavicle
     direction 0.968229 0.236071 -0.0824755  
     length 3.60593  
     axis 0 0 0   XYZ
    dof ry rz
    limits (-20.0 10.0)
           (0.0 20.0)
  end
  begin
     id 18 
     name lhumerus
     direction 1 -4.48968e-011 7.8138e-029   
     length 5.06035   
     axis 180 -30 -90   XYZ
    dof rx ry rz
    limits (-60.0 90.0)
           (-90.0 90.0)
           (-90.0 90.0)
  end
  begin
     id 19
     name lradius
     direction 1 -4.48967e-011 9.02887e-028   
     length 3.1478   
     axis 180 -30 -90   XYZ
    dof rx
    limits (-10.0 170.0)
  end
  begin
     id 20
     name lwrist
     direction 1 -4.48961e-011 7.20928e-028   
     length 1.5739   
     axis -5.52449e-016 90 90   XYZ
    dof ry
    limits (-180.0 0.0)
 end
  begin
     id 21 
     name lhand
     direction 1 -4.48972e-011 1.44186e-027   
     length 0.606747   
     axis -9.20027e-016 90 90   XYZ
    dof rx rz
    limits (-90.0 90.0)
           (-45.0 45.0)
  end
  begin
     id 22 
     name lfingers
     direction 1 -4.48943e-011 2.88371e-027   
     length 0.489175   
     axis -1.84005e-015 90 90   XYZ
    dof rx
    limits (0.0 90.0)
  end
  begin
     id 23
     name lthumb
     direction 0.707107 -6.34917e-011 0.707107   
     length 0.70236   
     axis -90 45 2.85299e-015   XYZ
    dof rx rz
    limits (-45.0 45.0)
           (-45.0 45.0)
  end
  begin
     id 24 
     name rclavicle
     direction -0.978165 0.207816 0.0022268   
     length 3.35425  
     axis 0 0 0   XYZ 
    dof ry rz
    limits (-10.0 20.0)
           (-20.0 0.0)
  end
  begin
     id 25 
     name rhumerus
     direction -1 -4.48964e-011 -4.02159e-027  
     length 5.12273   
     axis 180 30 90   XYZ
    dof rx ry rz
    limits (-90.0 60.0)
           (-90.0 90.0)
           (-90.0 90.0)
  end
  begin
     id 26 
     name rradius
     direction -1 -4.48966e-011 1.62746e-027   
     length 3.422   
     axis 180 30 90   XYZ
    dof rx
    limits (-10.0 170.0)
  end
  begin
     id 27 
     name rwrist
     direction -1 -4.4896e-011 7.20928e-028   
     length 1.711   
     axis -5.52449e-016 -90 -90   XYZ
    dof ry
    limits (-180.0 0.0)
  end
  begin
     id 28
     name rhand
     direction -1 -4.48979e-011 1.44186e-027   
     length 0.704599   
     axis -9.20027e-016 -90 -90   XYZ
    dof rx rz
    limits (-90.0 90.0)
           (-45.0 45.0)
  end
  begin
     id 29
     name rfingers
     direction -1 -4.48962e-011 2.88371e-027   
     length 0.568066   
     axis -1.84005e-015 -90 -90   XYZ
    dof rx
    limits (0.0 90.0)
  end
  begin
     id 30
     name rthumb
     direction -0.707107 -6.34949e-011 0.707107   
     length 0.815633   
     axis -90 -45 -2.85299e-015   XYZ
    dof rx rz
    limits (-45.0 45.0)
           (-45.0 45.0)
  end
:hierarchy
  begin
    root lhipjoint rhipjoint lowerback
    lhipjoint lfemur
    lfemur ltibia
    ltibia lfoot
    lfoot ltoes
    rhipjoint rfemur
    rfemur rtibia
    rtibia rfoot
    rfoot rtoes
    lowerback upperback
    upperback thorax
    thorax lowerneck lclavicle rclavicle
    lowerneck upperneck
    upperneck head
    lclavicle lhumerus
    lhumerus lradius
    lradius lwrist
    lwrist lhand lthumb
    lhand lfingers
    rclavicle rhumerus
    rhumerus rradius
    rradius rwrist
    rwrist rhand rthumb
    rhand rfingers
  end

#!OML:ASF Z:\Project 1\Capture day 1\Session 1\Male1.ASF
:FULLY-SPECIFIED
:DEGREES
544
root 24.8881 16.5145 -5.82626 -171.973 30.2306 -177.655
lowerback -6.47308 -0.74145 0.678771
upperback 1.28636 -1.08556 0.996585
thorax 4.97371 -0.528833 0.53666
lowerneck 0.915822 -9.36711 -0.216581
upperneck -19.8433 -11.9108 0.142538
head -6.15339 -5.36347 0.689312
rclavicle -9.23417e-015 -2.04624e-014
rhumerus 83.2416 -4.98791 -69.5208
rradius 17.7672
rwrist 58.9357
rhand -19.0321 24.5261
rfingers 7.12502
rthumb 7.27412 -5.32889
lclavicle -9.23417e-015 -2.04624e-014
lhumerus -20.1935 4.88211 87.4776
lradius 17.2778
lwrist -9.67536
lhand -9.66481 44.8713
lfingers 7.12502
lthumb 16.3064 74.2057
rfemur -11.0701 -7.82003 26.9959
rtibia 16.0794
rfoot -11.3716 -7.60678
rtoes -6.26833
lfemur 11.4062 -5.22432 -9.89609
ltibia 19.1011
lfoot 12.9539 5.41947
ltoes 49.7894
545
root 24.8864 16.5142 -5.8268 -172.03 30.2455 -177.748
lowerback -6.56159 -0.779798 0.393838
upperback 1.35857 -1.12074 1.13416
thorax 5.10798 -0.556199 0.834126
lowerneck 0.657788 -9.25186 -0.916699
upperneck -19.5974 -11.6945 0.736778
head -5.94943 -5.26292 0.944014
rclavicle 1.42442e-014 -1.83876e-014
rhumerus 83.1512 -4.93077 -68.1156
rradius 17.9678
rwrist 57.7172
rhand -18.9799 24.487
rfingers 7.12502
rthumb 7.32452 -5.36617
lclavicle 1.42442e-014 -1.83876e-014
lhumerus -20.1612 4.72576 87.7457
lradius 17.5853
lwrist -9.30447
lhand -9.46676 43.6435
lfingers 7.12502
lthumb 16.4971 72.9621
rfemur -11.0372 -8.06677 26.9122
rtibia 16.0254
rfoot -11.4646 -7.5014
rtoes -6.4594
lfemur 11.375 -5.16948 -10.0072
ltibia 19.1696
lfoot 13.3841 5.6205
ltoes 49.4114
546
root 24.8837 16.5135 -5.82627 -172.063 30.1978 -177.816
lowerback -6.50068 -0.83571 0.49141
upperback 1.29077 -1.19716 1.00378
thorax 4.99859 -0.589852 0.63694
lowerneck 0.956117 -9.24685 -0.408646
upperneck -19.857 -11.7223 0.380196
head -6.13681 -5.27725 0.783097
rclavicle -2.47378e-014 7.90169e-015
rhumerus 82.8482 -4.893 -67.096
rradius 18.224
rwrist 56.5337
rhand -18.9654 24.4265
rfingers 7.12502
rthumb 7.33852 -5.42622
lclavicle -2.47378e-014 7.90169e-015
lhumerus -20.3584 4.24331 87.6272
lradius 18.058
lwrist -8.73349
lhand -9.83301 43.6196
lfingers 7.12502
lthumb 16.1444 72.9672
rfemur -11.0139 -8.21672 26.8436
rtibia 15.946
rfoot -11.4895 -7.44111
rtoes -6.61144
lfemur 11.3067 -5.2452 -10.103
ltibia 19.263
lfoot 12.9824 5.39737
ltoes 49.3614
547
root 24.8814 16.5125 -5.82647 -172.003 30.1565 -177.73
lowerback -6.51837 -0.861693 0.69631
upperback 1.24986 -1.24498 0.920977
thorax 4.96002 -0.60653 0.430943
lowerneck 1.30184 -9.31347 0.227994
upperneck -20.2002 -11.8549 -0.0827969
head -6.37557 -5.33899 0.580185
rclavicle 2.86297e-014 -1.35733e-014
rhumerus 82.5791 -4.8958 -66.3349
rradius 18.4902
rwrist 55.627
rhand -18.9916 24.3663
rfingers 7.12502
rthumb 7.31324 -5.4873
lclavicle 2.86297e-014 -1.35733e-014
lhumerus -20.5208 3.57233 87.5958
lradius 18.5782
lwrist -8.01312
lhand -10.251 43.9414
lfingers 7.12502
lthumb 15.7419 73.3212
rfemur -10.9842 -8.2349 26.915
rtibia 15.8394
rfoot -11.5262 -7.4349
rtoes -5.77593
lfemur 11.2214 -5.24184 -10.015
ltibia 19.378
lfoot 12.9282 5.33204
ltoes 49.2821
548
root 24.8792 16.5093 -5.82706 -171.963 30.1805 -177.62
lowerback -6.5329 -0.843984 0.556516
upperback 1.24763 -1.21733 1.13087
thorax 4.97358 -0.598886 0.729948
lowerneck 1.25879 -9.32833 0.264426
upperneck -20.2422 -11.9124 -0.346877
head -6.40162 -5.34494 0.495697
rclavicle 9.79636e-015 -6.31141e-015
rhumerus 82.596 -4.85556 -66.2112
rradius 18.4951
rwrist 55.7087
rhand -19.0604 24.3601
rfingers 7.12502
rthumb 7.24689 -5.49581
lclavicle 9.79636e-015 -6.31141e-015
lhumerus -20.6019 3.08211 88.0459
lradius 19.0755
lwrist -7.56721
lhand -10.2215 43.7369
lfingers 7.12502
lthumb 15.7703 73.1145
rfemur -10.898 -8.28765 27.009
rtibia 15.7119
rfoot -11.443 -7.34621
rtoes -5.11195
lfemur 11.1893 -5.16091 -9.90651
ltibia 19.5042
lfoot 12.8701 5.33924
ltoes 49.1015
549
root 24.8772 16.5066 -5.82688 -171.951 30.2374 -177.541
lowerback -6.46442 -0.850858 0.734115
upperback 1.23564 -1.23745 1.06805
thorax 4.9172 -0.603058 0.564022
lowerneck 1.20154 -9.34 0.187087
upperneck -20.0722 -11.9052 -0.133929
head -6.31857 -5.36282 0.565224
rclavicle -2.03537e-014 -4.99446e-015
rhumerus 83.0395 -4.71802 -68.5678
rradius 17.935
rwrist 57.748
rhand -19.2113 24.4581
rfingers 7.12502
rthumb 7.10115 -5.40278
lclavicle -2.03537e-014 -4.99446e-015
lhumerus -20.7573 2.04782 88.193
lradius 19.7651
lwrist -6.63917
lhand -10.6352 44.1121
lfingers 7.12502
lthumb 15.3719 73.5207
rfemur -10.8041 -8.21104 27.0639
rtibia 15.6056
rfoot -11.4484 -7.4758
rtoes -7.43351
lfemur 11.1739 -5.03882 -9.8409
ltibia 19.6101
lfoot 13.0462 5.23899
ltoes 49.0649
550
root 24.8759 16.5076 -5.8273 -171.955 30.2543 -177.561
lowerback -6.49862 -0.869043 0.678634
upperback 1.27337 -1.25954 1.10113
thorax 4.97809 -0.615821 0.626352
lowerneck 0.886479 -9.25323 0.0477343
upperneck -19.8804 -11.7706 -0.0594006
head -6.18949 -5.29914 0.579816
rclavicle -3.80393e-014 7.03201e-015
rhumerus 83.3754 -4.58967 -69.9628
rradius 17.6209
rwrist 59.1041
rhand -19.3031 24.5943
rfingers 7.12502
rthumb 7.01261 -5.2695
lclavicle -3.80393e-014 7.03201e-015
lhumerus -20.8162 1.15283 88.4949
lradius 20.4968
lwrist -5.87075
lhand -11.0989 44.6095
lfingers 7.12502
lthumb 14.9252 74.0518
rfemur -10.7854 -8.11337 27.0237
rtibia 15.5634
rfoot -11.4727 -7.49145
rtoes -6.75082
lfemur 11.1409 -5.10591 -9.90776
ltibia 19.6672
lfoot 12.8355 5.26156
ltoes 48.6888
551
root 24.8758 16.5062 -5.82687 -172.004 30.2762 -177.584
lowerback -6.50158 -0.870692 0.59221
upperback 1.2971 -1.2564 1.13495
thorax 5.00719 -0.617186 0.710092
lowerneck 0.730017 -9.25077 -0.106986
upperneck -19.6616 -11.7608 0.052105
head -6.07648 -5.30191 0.623041
rclavicle 1.01284e-013 -6.70898e-016
rhumerus 83.3086 -4.56385 -69.4889
rradius 17.7091
rwrist 58.7212
rhand -19.2888 24.6477
rfingers 7.12502
rthumb 7.0264 -5.21566
lclavicle 1.01284e-013 -6.70898e-016
lhumerus -20.9613 0.133983 88.8117
lradius 21.3187
lwrist -5.28767
lhand -11.4363 45.1784
lfingers 7.12502
lthumb 14.6001 74.6445
rfemur -10.7413 -8.12717 26.9775
rtibia 15.5484
rfoot -11.4987 -7.41648
rtoes -6.25191
lfemur 11.1924 -5.27726 -9.99537
ltibia 19.7037
lfoot 13.0834 5.79713
ltoes 49.4684
552
root 24.8771 16.5049 -5.82602 -172.079 30.3989 -177.617
lowerback -6.47045 -0.836534 0.501815
upperback 1.29662 -1.20298 1.12796
thorax 4.99023 -0.593538 0.759751
lowerneck 0.846493 -9.22942 -0.0227069
upperneck -19.6944 -11.7456 -0.0251424
head -6.11676 -5.2948 0.592978
rclavicle -1.09338e-013 1.84373e-014
rhumerus 83.0923 -4.57337 -68.519
rradius 17.867
rwrist 57.7742
rhand -19.232 24.5853
rfingers 7.12502
rthumb 7.0812 -5.27624
lclavicle -1.09338e-013 1.84373e-014
lhumerus -21.1774 -0.839569 89.076
lradius 22.2206
lwrist -4.88194
lhand -12.1477 45.8707
lfingers 7.12502
lthumb 13.9147 75.3851
rfemur -10.6687 -8.08846 26.9187
rtibia 15.5327
rfoot -11.5075 -7.24167
rtoes -5.3009
lfemur 11.2768 -5.20461 -10.0622
ltibia 19.7476
lfoot 12.6636 5.63661
ltoes 49.1902
553
root 24.8758 16.51 -5.82589 -172.035 30.3195 -177.675
lowerback -6.52719 -0.863052 0.473345
upperback 1.24976 -1.23451 1.08062
thorax 4.97332 -0.609537 0.722695
lowerneck 1.02099 -9.20684 0.131427
upperneck -19.7851 -11.7164 -0.0498071
head -6.18627 -5.28805 0.572119
rclavicle 7.76223e-014 -8.64713e-015
rhumerus 82.9316 -4.60048 -68.2061
rradius 17.9425
rwrist 57.3679
rhand -19.2254 24.4846
rfingers 7.12502
rthumb 7.08759 -5.37676
lclavicle 7.76223e-014 -8.64713e-015
lhumerus -21.4561 -1.74309 89.2269
lradius 23.368
lwrist -4.42774
lhand -12.521 46.1391
lfingers 7.12502
lthumb 13.5549 75.6778
rfemur -10.729 -8.04475 26.864
rtibia 15.4712
rfoot -11.4245 -7.25047
rtoes -3.32462
lfemur 11.1277 -5.36146 -10.1506
ltibia 19.8309
lfoot 12.8621 5.79477
ltoes 49.4179
554
root 24.8736 16.5114 -5.8249 -172.019 30.2467 -177.622
lowerback -6.49006 -0.884852 0.55031
upperback 1.2428 -1.26853 1.0606
thorax 4.94321 -0.623915 0.655688
lowerneck 1.0813 -9.20529 0.217119
upperneck -19.8098 -11.7076 -0.02352
head -6.20799 -5.29215 0.570603
rclavicle -1.09843e-013 2.10339e-014
rhumerus 83.0693 -4.65759 -69.3441
rradius 17.7001
rwrist 58.2081
rhand -19.3261 24.3355
rfingers 7.12502
rthumb 6.99039 -5.52903
lclavicle -1.09843e-013 2.10339e-014
lhumerus -21.7507 -2.72651 89.3445
lradius 24.7291
lwrist -3.7163
lhand -12.5183 45.8618
lfingers 7.12502
lthumb 13.5575 75.4004
rfemur -10.665 -8.1738 26.9279
rtibia 15.379
rfoot -11.4214 -7.30355
rtoes -6.04929
lfemur 11.0639 -5.38978 -10.0721
ltibia 19.9302
lfoot 12.6606 5.61823
ltoes 49.2176
555
root 24.87 16.5108 -5.8243 -172.019 30.2002 -177.507
lowerback -6.40623 -0.913191 0.672913
upperback 1.25894 -1.3161 1.08818
thorax 4.91086 -0.644099 0.611643
lowerneck 1.05964 -9.20919 0.24491
upperneck -19.7927 -11.7093 -0.00863949
head -6.19967 -5.29735 0.56957
rclavicle -2.78609e-015 9.06955e-016
rhumerus 83.4473 -4.65332 -71.4898
rradius 17.1962
rwrist 59.974
rhand -19.4781 24.1894
rfingers 7.12502
rthumb 6.84361 -5.67997
lclavicle -2.78609e-015 9.06955e-016
lhumerus -21.9672 -3.34069 89.4253
lradius 26.0588
lwrist -3.07597
lhand -12.709 45.3568
lfingers 7.12502
lthumb 13.3737 74.9076
rfemur -10.5335 -8.29432 27.0296
rtibia 15.2484
rfoot -11.4238 -7.26696
rtoes -6.74854
lfemur 11.0182 -5.25953 -9.92414
ltibia 20.053
lfoot 12.8419 5.21501
ltoes 48.6816
556
root 24.868 16.5109 -5.82348 -171.998 30.2226 -177.43
lowerback -6.34874 -0.958537 0.731756
upperback 1.2372 -1.3805 1.10229
thorax 4.85503 -0.674492 0.587612
lowerneck 0.885812 -9.05872 -0.233028
upperneck -19.447 -11.4593 0.499738
head -5.99779 -5.19713 0.76569
rclavicle -6.35536e-014 4.29375e-014
rhumerus 83.6466 -4.46474 -72.9267
rradius 16.8692
rwrist 61.214
rhand -19.5744 24.2592
rfingers 7.12502
rthumb 6.75064 -5.61321
lclavicle -6.35536e-014 4.29375e-014
lhumerus -22.228 -3.77735 89.4571
lradius 27.4818
lwrist -2.40824
lhand -13.3758 45.4602
lfingers 7.12502
lthumb 12.7309 75.0521
rfemur -10.4502 -8.20137 27.0736
rtibia 15.0856
rfoot -11.3521 -7.12988
rtoes -4.72632
lfemur 10.936 -5.19739 -9.85624
ltibia 20.205
lfoot 12.8432 5.0276
ltoes 48.2409
557
root 24.8687 16.5102 -5.82336 -171.985 30.3329 -177.328
lowerback -6.30609 -0.961323 0.799234
upperback 1.23143 -1.38869 1.10234
thorax 4.8233 -0.676644 0.54973
lowerneck 0.232021 -8.73749 -1.81424
upperneck -18.3861 -10.8816 2.0885
head -5.36662 -4.96338 1.3987
rclavicle -5.44793e-014 -5.24683e-015
rhumerus 83.6678 -4.30092 -73.481
rradius 16.7653
rwrist 61.6905
rhand -19.6096 24.3616
rfingers 7.12502
rthumb 6.71673 -5.5119
lclavicle -5.44793e-014 -5.24683e-015
lhumerus -22.5294 -4.61963 89.5685
lradius 29.094
lwrist -1.54263
lhand -14.3888 45.7489
lfingers 7.12502
lthumb 11.7542 75.3991
rfemur -10.3259 -8.09923 27.144
rtibia 14.9058
rfoot -11.2443 -6.94726
rtoes -3.26646
lfemur 10.9094 -5.01974 -9.74869
ltibia 20.3544
lfoot 12.8088 4.78316
ltoes 47.7532
